<?xml version="1.0" encoding="utf-8"?>
<!-- Generator: Adobe Illustrator 28.0.0, SVG Export Plug-In . SVG Version: 6.00 Build 0)  -->
<svg version="1.1" id="Layer_1" xmlns="http://www.w3.org/2000/svg" xmlns:xlink="http://www.w3.org/1999/xlink" x="0px" y="0px"
	 viewBox="0 0 288.4 95.9" style="enable-background:new 0 0 288.4 95.9;" xml:space="preserve">
<style type="text/css">
	.st0{fill:#FFFFFF;}
</style>
<g>
	<g>
		<path class="st0" d="M173.5,10.8c-2.8,2.6-6.9,3.1-10.1,1c-0.7-0.4-1.4-0.8-2.2-1.2c-2.6-1.3-5.4-1.9-8.4-1.9
			c-2.7,0-5.3,0.6-7.6,1.7c-2.3,1.1-4.3,2.7-6,4.6c-1.7,2-3,4.4-3.9,7.2c-0.9,2.7-1.4,5.8-1.4,9.2s0.5,6.5,1.4,9.3
			c1,2.8,2.4,5.2,4.1,7.2c1.7,2,3.8,3.5,6.1,4.6c2.4,1.1,5,1.6,7.9,1.6c3.7,0,6.9-0.8,9.5-2.5c0.9-0.6,1.7-1.2,2.4-1.8
			c2.8-2.5,6.8-2.7,9.8-0.4l0,0c-2.5,3.8-5.5,6.8-9.1,9s-7.9,3.3-12.7,3.3c-4,0-7.7-0.8-11-2.3c-3.4-1.5-6.3-3.5-8.7-6.2
			s-4.4-5.9-5.8-9.6c-1.4-3.7-2-7.8-2-12.2s0.7-8.5,2-12.3c1.4-3.7,3.3-6.9,5.7-9.5c2.4-2.7,5.3-4.8,8.5-6.3
			c3.3-1.5,6.9-2.2,10.6-2.2c4.4,0,8.4,0.9,12,2.8C168.4,5.7,171.3,8,173.5,10.8L173.5,10.8z"/>
		<path class="st0" d="M218.6,0.1L218.6,0.1c0,4.4-3.6,7.9-8,7.9h-20.4v17.3h23.5v7.9h-23.5v20.5h20.4c4.4,0,8,3.5,8,7.9l0,0h-37.2
			V0h37.2V0.1z"/>
		<path class="st0" d="M271.8,10.2c-2.6,2.5-6.4,3-9.4,1c-0.8-0.5-1.6-1-2.5-1.4c-2.6-1.3-5.4-2-8.3-2c-2.7,0-5.2,0.6-7.6,1.7
			c-2.3,1.1-4.3,2.7-6,4.7c-1.7,2.1-3,4.5-3.9,7.4c-0.9,2.8-1.4,5.9-1.4,9.3c0,3.5,0.5,6.6,1.4,9.4c1,2.9,2.4,5.3,4.1,7.4
			c1.7,2,3.8,3.6,6.1,4.7c2.4,1.1,5,1.6,7.9,1.6c3.7,0,6.8-0.9,9.5-2.6c0.9-0.6,1.7-1.2,2.4-1.8c2.8-2.5,6.8-2.7,9.8-0.4l0,0
			c-2.5,3.9-5.5,6.9-9,9.2c-3.6,2.2-7.8,3.3-12.7,3.3c-4,0-7.7-0.8-11-2.3c-3.4-1.5-6.3-3.6-8.7-6.3c-2.4-2.7-4.4-6-5.8-9.7
			c-1.4-3.8-2-7.9-2-12.4s0.7-8.7,2-12.5c1.4-3.8,3.3-7,5.7-9.7c2.4-2.7,5.2-4.9,8.5-6.4s6.8-2.2,10.6-2.2c4.4,0,8.4,0.9,12,2.8
			c3.6,1.9,6.5,4.2,8.7,7L271.8,10.2z"/>
		<path class="st0" d="M288.4,0.1v52.8c0,4.9-3.8,8.8-8.4,8.8l0,0V8.9C280,4,283.8,0.1,288.4,0.1L288.4,0.1z"/>
	</g>
	<g>
		<path class="st0" d="M147.4,78.8c-0.7-0.8-1.5-1.4-2.4-1.8s-1.9-0.6-3-0.6c-1,0-1.9,0.2-2.7,0.6s-1.5,0.9-2.1,1.5
			c-0.6,0.7-1.1,1.5-1.4,2.4c-0.3,0.9-0.5,1.9-0.5,3.1c0,1.1,0.2,2.2,0.5,3.1c0.4,0.9,0.8,1.7,1.5,2.4c0.6,0.7,1.3,1.2,2.2,1.5
			c0.9,0.4,1.8,0.5,2.8,0.5c1.3,0,2.4-0.3,3.4-0.8c1-0.6,1.7-1.3,2.3-2.2l2,1.5c-0.9,1.3-2,2.3-3.2,3c-1.3,0.7-2.8,1.1-4.5,1.1
			c-1.4,0-2.7-0.3-3.9-0.8s-2.2-1.2-3.1-2.1c-0.9-0.9-1.6-2-2.1-3.2s-0.7-2.6-0.7-4.1s0.2-2.8,0.7-4.1c0.5-1.2,1.2-2.3,2-3.2
			c0.9-0.9,1.9-1.6,3-2.1c1.2-0.5,2.4-0.7,3.8-0.7c1.6,0,3,0.3,4.3,0.9s2.3,1.4,3.1,2.3L147.4,78.8z"/>
		<path class="st0" d="M161.2,73.9c1.5,0,2.9,0.2,4.1,0.7c1.3,0.5,2.3,1.2,3.2,2.1c0.9,0.9,1.6,2,2.1,3.2s0.7,2.6,0.7,4.1
			s-0.3,2.8-0.8,4.1c-0.5,1.2-1.2,2.3-2.1,3.2c-0.9,0.9-2,1.6-3.2,2.1c-1.3,0.5-2.6,0.7-4.1,0.7s-2.9-0.2-4.1-0.7
			c-1.3-0.5-2.3-1.2-3.2-2.1c-0.9-0.9-1.6-2-2.1-3.2s-0.8-2.6-0.8-4.1s0.3-2.8,0.8-4.1c0.5-1.2,1.2-2.3,2.1-3.2
			c0.9-0.9,2-1.6,3.2-2.1C158.3,74.1,159.7,73.9,161.2,73.9z M161.2,76.4c-1.1,0-2.1,0.2-3,0.5c-0.9,0.4-1.7,0.9-2.3,1.5
			c-0.6,0.7-1.1,1.4-1.5,2.4c-0.4,0.9-0.5,2-0.5,3.1s0.2,2.2,0.5,3.1c0.4,0.9,0.8,1.7,1.5,2.4c0.7,0.7,1.4,1.2,2.3,1.5
			c0.9,0.4,1.9,0.5,3,0.5s2.1-0.2,3-0.5c0.9-0.4,1.7-0.9,2.3-1.5c0.6-0.7,1.1-1.4,1.5-2.4c0.4-0.9,0.5-2,0.5-3.1s-0.2-2.2-0.5-3.1
			c-0.4-0.9-0.8-1.7-1.5-2.4c-0.6-0.7-1.4-1.2-2.3-1.5C163.4,76.6,162.4,76.4,161.2,76.4z"/>
		<path class="st0" d="M179.7,73.9c1.2,0,2.2,0.2,3.3,0.6c1,0.4,2,0.9,2.9,1.7l-1.7,2.1c-0.8-0.7-1.6-1.2-2.3-1.5
			c-0.8-0.3-1.5-0.4-2.2-0.4c-1,0-1.8,0.2-2.4,0.7s-0.9,1.1-0.9,1.9c0,0.5,0.1,0.9,0.2,1.3s0.4,0.7,0.7,1c0.3,0.3,0.8,0.6,1.3,0.9
			s1.2,0.6,2,0.8c2.1,0.7,3.6,1.5,4.5,2.4s1.3,2,1.3,3.4c0,0.7-0.2,1.4-0.5,2c-0.3,0.7-0.8,1.2-1.3,1.7c-0.6,0.5-1.3,0.9-2,1.1
			c-0.7,0.3-1.6,0.4-2.4,0.4c-0.7,0-1.4,0-2.1-0.1s-1.3-0.2-1.8-0.4c-0.6-0.2-1.1-0.4-1.7-0.7c-0.5-0.3-1.1-0.7-1.6-1.1l1.8-2.2
			c0.8,0.7,1.6,1.2,2.5,1.5s1.8,0.5,2.7,0.5c1.2,0,2.1-0.3,2.7-0.8c0.7-0.5,1-1.2,1-2c0-0.5-0.1-0.9-0.2-1.2c-0.1-0.3-0.4-0.7-0.8-1
			s-0.9-0.6-1.6-0.9s-1.6-0.6-2.6-1c-1.6-0.5-2.7-1.3-3.5-2.2c-0.8-0.9-1.2-2.1-1.2-3.4c0-0.8,0.1-1.5,0.4-2.1s0.7-1.2,1.2-1.7
			s1.2-0.8,1.9-1.1C177.9,74,178.7,73.9,179.7,73.9z"/>
		<path class="st0" d="M192.3,74.1l6.7,14l6.7-14h2.7v19.6h-2.7V79.9l-5.4,11.3h-2.6l-5.4-11.3v13.8h-2.7V74.1H192.3z"/>
		<path class="st0" d="M223.8,74.1v2.5h-8.6v5.5h7.4v2.5h-7.4v6.5h9v2.5h-11.8V74h11.4V74.1z"/>
		<path class="st0" d="M241.4,74.1v2.5H235v17.1h-2.8V76.6h-6.4v-2.5H241.4z"/>
		<path class="st0" d="M246.5,74.1v19.6h-2.8V74.1H246.5z"/>
		<path class="st0" d="M264.5,78.8c-0.7-0.8-1.5-1.4-2.4-1.8s-1.9-0.6-3-0.6c-1,0-1.9,0.2-2.7,0.6c-0.8,0.4-1.5,0.9-2.1,1.5
			c-0.6,0.7-1.1,1.5-1.4,2.4s-0.5,1.9-0.5,3.1c0,1.1,0.2,2.2,0.5,3.1c0.4,0.9,0.8,1.7,1.5,2.4c0.6,0.7,1.3,1.2,2.2,1.5
			c0.9,0.4,1.8,0.5,2.8,0.5c1.3,0,2.4-0.3,3.4-0.8c1-0.6,1.7-1.3,2.3-2.2l2,1.5c-0.9,1.3-2,2.3-3.2,3c-1.3,0.7-2.8,1.1-4.5,1.1
			c-1.4,0-2.7-0.3-3.9-0.8c-1.2-0.5-2.2-1.2-3.1-2.1s-1.6-2-2.1-3.2s-0.7-2.6-0.7-4.1s0.2-2.8,0.7-4.1c0.5-1.2,1.2-2.3,2-3.2
			c0.9-0.9,1.9-1.6,3-2.1c1.2-0.5,2.4-0.7,3.8-0.7c1.6,0,3,0.3,4.3,0.9s2.3,1.4,3.1,2.3L264.5,78.8z"/>
		<path class="st0" d="M275.2,73.9c1.2,0,2.2,0.2,3.3,0.6c1,0.4,2,0.9,2.9,1.7l-1.7,2.1c-0.8-0.7-1.6-1.2-2.3-1.5
			c-0.8-0.3-1.5-0.4-2.2-0.4c-1,0-1.8,0.2-2.4,0.7s-0.9,1.1-0.9,1.9c0,0.5,0.1,0.9,0.2,1.3s0.4,0.7,0.7,1c0.3,0.3,0.8,0.6,1.3,0.9
			s1.2,0.6,2,0.8c2.1,0.7,3.6,1.5,4.5,2.4s1.3,2,1.3,3.4c0,0.7-0.2,1.4-0.5,2c-0.3,0.7-0.8,1.2-1.3,1.7c-0.6,0.5-1.3,0.9-2,1.1
			c-0.7,0.3-1.6,0.4-2.4,0.4c-0.7,0-1.4,0-2.1-0.1s-1.3-0.2-1.8-0.4c-0.6-0.2-1.1-0.4-1.7-0.7c-0.5-0.3-1.1-0.7-1.6-1.1l1.8-2.2
			c0.8,0.7,1.6,1.2,2.5,1.5s1.8,0.5,2.7,0.5c1.2,0,2.1-0.3,2.7-0.8c0.7-0.5,1-1.2,1-2c0-0.5-0.1-0.9-0.2-1.2c-0.1-0.3-0.4-0.7-0.8-1
			s-0.9-0.6-1.6-0.9s-1.6-0.6-2.6-1c-1.6-0.5-2.7-1.3-3.5-2.2c-0.8-0.9-1.2-2.1-1.2-3.4c0-0.8,0.1-1.5,0.4-2.1s0.7-1.2,1.2-1.7
			s1.2-0.8,1.9-1.1C273.4,74,274.2,73.9,275.2,73.9z"/>
	</g>
	<g>
		<path class="st0" d="M87.6,58.4h24.6c-0.4,1.8-0.8,3.5-1.4,5.1c-5.2,15.9-18.7,28.1-35.3,31.6c0-1.6,0.5-3.2,1.4-4.5
			s2.1-2.3,3.6-2.9c11.2-4.2,20.1-13.1,24.3-24.2H92c-3,9.3-8.9,17.3-16.6,23.1c-1.7,1.3-3.6,2.5-5.5,3.5c-4.1,2.3-8.6,4-13.4,4.9
			c-3,0.6-6.2,0.9-9.4,0.9s-6.4-0.3-9.4-0.9C16.2,90.6,0,71.6,0,48.8S16.2,7,37.7,2.6c0,1.6-0.5,3.2-1.4,4.5s-2.2,2.3-3.7,2.9
			C16.9,15.9,5.7,31.1,5.7,48.8c0,19.6,13.7,36.1,32,40.4c1.8,0.4,3.6,0.7,5.4,0.9c1.3,0.1,2.6,0.2,4,0.2c3.2,0,6.4-0.4,9.4-1.1
			c2.7-0.6,5.3-1.5,7.8-2.7C74.2,82,82,73.6,85.9,63.4C86.7,61.9,87.2,60.2,87.6,58.4z"/>
		<path class="st0" d="M37.8,11.2c1.7-1.3,3.5-2.5,5.4-3.5c4.1-2.3,8.6-4,13.4-4.9c3-0.6,6.2-0.9,9.4-0.9c3.3,0,6.4,0.3,9.5,1
			c16.7,3.4,30.1,15.7,35.3,31.6c0.5,1.7,1,3.4,1.4,5.1H87.6c-0.4-1.8-0.9-3.5-1.6-5.1c-3.9-10.3-10.6-18.6-20.5-23.1h7
			c2,0,4,0.7,5.5,2c6.4,5.6,11.4,12.8,14.1,21.1h12.8c-4.8-12.8-15.8-22.6-29.3-25.8C73.8,8.3,72,8,70.1,7.8c-1.3-0.1-2.6-0.2-4-0.2
			c-3.2,0-6.4,0.4-9.4,1.1c-2.7,0.6-5.3,1.5-7.8,2.7c-14.3,6.5-24.2,21-24.2,37.7c0,12.9,4.2,22.2,13.5,29.8
			c2.3,1.9-0.3,7.9-0.3,7.9C26.4,78.2,19,64.5,19,49.1S26.4,19.8,37.8,11.2z"/>
	</g>
</g>
</svg>
