<?xml version="1.0" encoding="utf-8"?>
<!-- Generator: Adobe Illustrator 28.0.0, SVG Export Plug-In . SVG Version: 6.00 Build 0)  -->
<svg version="1.1" id="Layer_1" xmlns="http://www.w3.org/2000/svg" xmlns:xlink="http://www.w3.org/1999/xlink" x="0px" y="0px"
	 viewBox="0 0 100 100" style="enable-background:new 0 0 100 100;" xml:space="preserve">
<style type="text/css">
	.st0{fill:#FFFFFF;}
</style>
<path class="st0" d="M12,8c-2.2,0-4,1.8-4,4v76c0,2.2,1.8,4,4,4h76c2.2,0,4-1.8,4-4V12c0-2.2-1.8-4-4-4H12z M12,12h76v76H12V12z
	 M37.2,28c-2.9,0-5.2,0.3-7.2,0.8L30,72h4.9V53.7c0.7,0.1,1.3,0.1,2.2,0.1c3.8,0,7.9-1.6,10.2-4.8c1.7-2.2,2.6-4.9,2.6-8.8
	c0-3.8-1.1-6.9-3.1-9C44.5,29,41.1,28,37.2,28z M38,31.3c5.5,0,7.3,4,7.3,8.4c0,6.1-3.3,9.3-8.1,9.3c-0.8,0-1.4-0.1-2-0.1V31.6
	C35.8,31.4,36.8,31.3,38,31.3z M63.4,40c-5,0-8.8,3.5-8.8,8.6c0,3.5,2.3,6.2,6.4,8.9c3.3,2.1,4.1,3.7,4.1,6.1c0,2.8-1.9,4.5-4.7,4.5
	c-2.1,0-4.1-0.9-5.2-1.6L54,70.2c1.4,1.1,4,1.8,6.3,1.8c5.3,0,9.7-3,9.7-9.3c0-4.3-2.9-7.2-6.6-9.5c-3.2-2.1-4-3.3-4-5.3
	c0-2.1,1.4-4,4.1-4c1.7,0,3.1,0.6,4.3,1.4l1.3-3.7C67.8,40.8,66,40,63.4,40z"/>
</svg>
