<?xml version="1.0" encoding="utf-8"?>
<!-- Generator: Adobe Illustrator 28.0.0, SVG Export Plug-In . SVG Version: 6.00 Build 0)  -->
<svg version="1.1" id="Layer_1" xmlns="http://www.w3.org/2000/svg" xmlns:xlink="http://www.w3.org/1999/xlink" x="0px" y="0px"
	 viewBox="0 0 100 100" style="enable-background:new 0 0 100 100;" xml:space="preserve">
<style type="text/css">
	.st0{fill:#FFFFFF;}
</style>
<path class="st0" d="M12,8c-2.2,0-4,1.8-4,4v76c0,2.2,1.8,4,4,4h76c2.2,0,4-1.8,4-4V12c0-2.2-1.8-4-4-4H12z M12,12h76v76H12V12z
	 M39.9,28L30,72h4.8l2.9-12.9h9.6L50,72h4.9l-9.6-44H39.9z M65.5,28c-1.6,0-3,1.3-3,3.1s1.3,3.1,2.9,3.1h0.1c1.8,0,3-1.3,3-3.1
	S67.3,28,65.5,28z M42.5,32.9h0.2c0.5,3.2,1.1,6.8,1.7,9.9L46.6,54l-8.2,0l2.2-11.2C41.3,39.9,41.9,36.1,42.5,32.9z M63,38v34h5V38
	H63z"/>
</svg>
