<?xml version="1.0" encoding="utf-8"?>
<!-- Generator: Adobe Illustrator 28.0.0, SVG Export Plug-In . SVG Version: 6.00 Build 0)  -->
<svg version="1.1" id="Layer_1" xmlns="http://www.w3.org/2000/svg" xmlns:xlink="http://www.w3.org/1999/xlink" x="0px" y="0px"
	 viewBox="0 0 100 100" style="enable-background:new 0 0 100 100;" xml:space="preserve">
<style type="text/css">
	.st0{fill:#FFFFFF;}
</style>
<path class="st0" d="M12,8c-2.2,0-4,1.8-4,4v76c0,2.2,1.8,4,4,4h76c2.2,0,4-1.8,4-4V12c0-2.2-1.8-4-4-4H12z M12,12h76v76H12V12z
	 M35.9,28L26,72h4.8l2.9-12.9h9.6L46,72h4.9l-9.6-44H35.9z M38.5,32.9h0.2c0.5,3.2,1.1,6.8,1.7,9.9L42.6,54l-8.2,0l2.2-11.2
	C37.3,39.9,37.9,36.1,38.5,32.9z M65,40c-2.7,0-4.9,1-6.5,2.4s-2.6,3.2-3.2,5c-1.3,3.4-1.2,6.7-1.2,6.7c0,0.3-0.5,4.2,0.7,8.5
	c0.6,2.2,1.7,4.6,3.7,6.4s4.8,3,8.3,3c4.2,0,8-1.9,8-1.9l-1.7-3.6c0,0-3.4,1.5-6.3,1.5c-2.7,0-4.4-0.8-5.6-1.9s-2-2.8-2.5-4.5
	c-0.6-2.1-0.7-4-0.7-5.4h18v-2c0,0,0-3.3-1.2-6.8c-0.6-1.7-1.6-3.5-3.2-5S67.7,40,65,40z M65,44c1.8,0,2.9,0.5,3.8,1.4
	s1.6,2.1,2.1,3.4c0.6,1.6,0.5,2.3,0.6,3.4H58.5c0.1-1,0-1.7,0.6-3.4c0.5-1.3,1.2-2.5,2.1-3.4S63.3,44,65,44z"/>
</svg>
