<?xml version="1.0" encoding="utf-8"?>
<!-- Generator: Adobe Illustrator 28.0.0, SVG Export Plug-In . SVG Version: 6.00 Build 0)  -->
<svg version="1.1" id="Layer_1" xmlns="http://www.w3.org/2000/svg" xmlns:xlink="http://www.w3.org/1999/xlink" x="0px" y="0px"
	 viewBox="0 0 50 50" style="enable-background:new 0 0 50 50;" xml:space="preserve">
<style type="text/css">
	.st0{fill:#FFFFFF;}
</style>
<path class="st0" d="M10.4,6.2c-2.3,0-4.2,1.9-4.2,4.2v29.2c0,2.3,1.9,4.2,4.2,4.2h29.2c2.3,0,4.2-1.9,4.2-4.2V10.4
	c0-2.3-1.9-4.2-4.2-4.2H10.4z M13.3,16h5.4c4.8,0,5.6,2.9,5.6,4.8c0,2.7-1.9,3.6-2.3,3.8c0.4,0.2,2.5,0.8,2.5,3.9
	c0.2,3.8-2.1,5.2-5.5,5.2h-5.8V16z M27.9,16h7.7v2.1h-7.7V16z M16.9,18.9v4.4h1.9c1.3,0,2.1-0.4,2.1-2.1c0-1.5-0.6-2.3-2.1-2.3H16.9
	z M32.5,20.4c2.9,0,5,1.7,5,6.4v1.4h-7.1c0,0.6,0,2.9,2.5,2.9c1.7,0,2.4-0.8,2.9-1.2l1.5,2.1c-0.2,0.2-1.7,1.9-4.4,1.9
	c-3.1,0-5.7-1.7-5.7-6.1v-1C27.3,22.1,29.8,20.4,32.5,20.4z M32.1,23.1c-0.6,0-1.9,0.2-1.9,2.7h3.5C33.7,25.8,34.2,23.1,32.1,23.1z
	 M16.9,26v4.8h2.3c1.3,0,1.9-0.9,1.9-2.3c0.2-1.7-0.4-2.5-1.6-2.5H16.9z"/>
</svg>
