<?xml version="1.0" encoding="utf-8"?>
<!-- Generator: Adobe Illustrator 28.0.0, SVG Export Plug-In . SVG Version: 6.00 Build 0)  -->
<svg version="1.1" id="Layer_1" xmlns="http://www.w3.org/2000/svg" xmlns:xlink="http://www.w3.org/1999/xlink" x="0px" y="0px"
	 viewBox="0 0 50 50" style="enable-background:new 0 0 50 50;" xml:space="preserve">
<style type="text/css">
	.st0{fill:#FFFFFF;}
</style>
<path class="st0" d="M25,4.2C13.5,4.2,4.2,13.5,4.2,25S13.5,45.8,25,45.8S45.8,36.5,45.8,25S36.5,4.2,25,4.2z M25,8.3
	c9.2,0,16.7,7.5,16.7,16.7c0,1-0.1,1.9-0.3,2.9c-0.5-0.1-1.3-0.3-2.1-0.3c-0.7,0-1.5,0.1-2.1,0.2c0.2-0.7,0.4-1.5,0.4-2.3
	c0-2-1-3.9-2.5-5.4c0.4-1.6,0.9-4.4-0.3-5.5c-3.3,0-5.1,2.4-5.2,2.5c-1-0.2-2.1-0.4-3.2-0.4c-1.4,0-2.8,0.3-4.1,0.7l0.4-0.3
	c0,0-1.8-2.5-5.2-2.5c-1.2,1.2-0.6,4.2-0.2,5.7c-1.6,1.5-2.6,3.3-2.6,5.3c0,0.7,0.2,1.3,0.3,2c-0.6-0.1-2.7-0.3-3.5-0.3
	c-0.8,0-1.9,0.2-2.9,0.4c-0.1-0.8-0.2-1.7-0.2-2.5C8.3,15.8,15.8,8.3,25,8.3z M11.4,27.7c0.8,0,3.3,0.3,3.6,0.3
	c0,0.1,0.1,0.2,0.1,0.3c-0.9-0.1-2.6-0.2-3.8-0.1c-0.8,0.1-1.7,0.4-2.6,0.6c-0.1-0.3-0.1-0.5-0.2-0.8C9.5,27.9,10.7,27.7,11.4,27.7z
	 M39.3,28.1c0.8,0,1.6,0.1,2.1,0.3c0,0.1-0.1,0.3-0.1,0.4c-0.5-0.1-1.4-0.3-2.4-0.3c-0.5,0-1.3,0-2,0.1c0-0.1,0-0.1,0.1-0.2
	C37.6,28.2,38.5,28.1,39.3,28.1z M12.7,28.7c1.2,0,2.3,0.1,2.7,0.1c1.1,2,3.3,3.5,6.7,4.2c-0.8,0.5-1.6,1.1-2.1,1.9
	c-0.5,0-1,0.1-1.5,0.1c-1.4,0-2.4-1.3-3.1-2.4c-0.8-1.1-1.7-1.2-2.3-1.3c-0.5-0.1-0.7,0.2-0.5,0.5c1.6,1.2,2.2,2.7,2.8,4
	c0.6,1.2,1.8,1.8,3.1,1.8h0.3c0,0.2-0.1,0.4-0.1,0.7v2.3c-4.8-1.9-8.5-6.1-9.8-11.1c0.9-0.2,1.8-0.4,2.5-0.5
	C11.8,28.7,12.2,28.7,12.7,28.7z M38.8,29c0.9,0,1.8,0.2,2.3,0.3c-1.1,4.3-4,7.9-7.7,10.1v-1.2c0-1.8-1.4-4.1-3.4-5.1
	c3.3-0.6,5.4-2,6.6-4C37.3,29,38.2,29,38.8,29z M26,37.5c0.6,0,1,0.5,1,1v3c-0.7,0.1-1.4,0.1-2.1,0.1v-3.1C25,38,25.5,37.5,26,37.5z
	 M21.9,39.6c0.6,0,1,0.5,1,1v0.9c-0.7-0.1-1.4-0.2-2.1-0.4v-0.5C20.8,40.1,21.3,39.6,21.9,39.6z M30.2,39.6c0.5,0,0.9,0.4,1,0.8
	c-0.7,0.3-1.4,0.5-2.1,0.7v-0.5C29.2,40.1,29.6,39.6,30.2,39.6z"/>
</svg>
