<?xml version="1.0" encoding="utf-8"?>
<!-- Generator: Adobe Illustrator 28.0.0, SVG Export Plug-In . SVG Version: 6.00 Build 0)  -->
<svg version="1.1" id="Layer_1" xmlns="http://www.w3.org/2000/svg" xmlns:xlink="http://www.w3.org/1999/xlink" x="0px" y="0px"
	 viewBox="0 0 100 100" style="enable-background:new 0 0 100 100;" xml:space="preserve">
<style type="text/css">
	.st0{fill:#FFFFFF;}
</style>
<g id="Icon_ionic-logo-javascript" transform="translate(24.75 -2.25)">
	<path id="Path_7" class="st0" d="M15.4,17.9H-0.9v43.5c0,10.8-3.7,13.8-10.1,13.8c-2.7,0-5.3-0.4-7.8-1.2l-1.7,12.7
		c3.6,1.1,7.4,1.7,11.2,1.7c14.7,0,24.8-6.9,24.8-26.8V17.9z"/>
	<path id="Path_8" class="st0" d="M51.1,16.2c-15.8,0-25.9,9-25.9,20.9c0,10.2,7.7,16.7,19,20.8c8.1,2.9,11.3,5.5,11.3,9.7
		c0,4.7-3.7,7.7-10.7,7.7c-5.8-0.1-11.4-1.6-16.5-4.3l0,0l-3.1,12.9c5.8,2.9,12.2,4.4,18.7,4.4c18.6,0,27.2-9.9,27.2-21.6
		c0-9.9-5.5-16.3-17.5-20.9c-8.8-3.5-12.5-5.5-12.5-9.9c0-3.5,3.2-6.7,9.8-6.7c4.8,0,9.4,1.2,13.6,3.5l3.9-13.1
		C63,17.2,57.1,16.1,51.1,16.2z"/>
</g>
</svg>
