<?xml version="1.0" encoding="utf-8"?>
<!-- Generator: Adobe Illustrator 28.0.0, SVG Export Plug-In . SVG Version: 6.00 Build 0)  -->
<svg version="1.1" id="Layer_1" xmlns="http://www.w3.org/2000/svg" xmlns:xlink="http://www.w3.org/1999/xlink" x="0px" y="0px"
	 viewBox="0 0 50 50" style="enable-background:new 0 0 50 50;" xml:space="preserve">
<style type="text/css">
	.st0{fill:#FFFFFF;}
</style>
<path class="st0" d="M39.6,6.2H10.4c-2.3,0-4.2,1.9-4.2,4.2v29.2c0,2.3,1.9,4.2,4.2,4.2h29.2c2.3,0,4.2-1.9,4.2-4.2V10.4
	C43.8,8.1,41.9,6.2,39.6,6.2z M18.8,35.4h-5.3V20.8h5.3V35.4z M16,18.2c-1.6,0-2.7-1.1-2.7-2.5s1.1-2.5,2.9-2.5
	c1.6,0,2.7,1.1,2.7,2.5S17.8,18.2,16,18.2z M37.5,35.4h-5.1v-8c0-2.2-1.4-2.7-1.9-2.7c-0.5,0-2.2,0.3-2.2,2.7c0,0.3,0,8,0,8h-5.3
	V20.8h5.3v2c0.7-1.2,2-2,4.6-2s4.6,2,4.6,6.6V35.4z"/>
</svg>
