<?xml version="1.0" encoding="utf-8"?>
<!-- Generator: Adobe Illustrator 27.9.0, SVG Export Plug-In . SVG Version: 6.00 Build 0)  -->
<svg version="1.1" id="Layer_1" xmlns="http://www.w3.org/2000/svg" xmlns:xlink="http://www.w3.org/1999/xlink" x="0px" y="0px"
	 viewBox="0 0 591.2 296" style="enable-background:new 0 0 591.2 296;" xml:space="preserve">
<style type="text/css">
	.st0{fill:#00FFFF;}
	.st1{fill:#FFFFFF;}
	.st2{fill:#FFFF00;}
	.st3{fill:#FF00FF;}
</style>
<g>
	<path class="st0" d="M5,43.1c-1.9,0-3.5-1.6-3.5-3.5v-34c0-1.9,1.6-3.5,3.5-3.5h34c1.9,0,3.5,1.6,3.5,3.5v34c0,1.9-1.6,3.5-3.5,3.5
		H5z"/>
	<path class="st1" d="M39,3.6c1.1,0,2,0.9,2,2v34c0,1.1-0.9,2-2,2H5c-1.1,0-2-0.9-2-2v-34c0-1.1,0.9-2,2-2H39 M39,0.6H5
		c-2.8,0-5,2.2-5,5v34c0,2.8,2.2,5,5,5h34c2.8,0,5-2.2,5-5v-34C44,2.8,41.8,0.6,39,0.6L39,0.6z"/>
	<path class="st1" d="M141.3,159.3v34c0,2.8-2.2,5-5,5H5c-2.8,0-5-2.2-5-5V66.9c0-2.8,2.2-5,5-5h34c2.8,0,5,2.2,5,5v82.4
		c0,2.8,2.2,5,5,5h87.3C139,154.3,141.3,156.5,141.3,159.3z"/>
	<path class="st1" d="M331.2,60.9C326,48.9,319,38.4,310,29.5s-19.4-16-31.4-21.1c-12-5.2-24.9-7.8-38.6-7.8
		c-12.1,0-23.6,2.1-34.5,6.2c-2.5,0.9-3.2,4.1-1.3,6l30.7,30.7c0.7,0.7,1.7,1.1,2.7,1.1c0.8,0,1.5,0,2.3,0c7.5,0,14.7,1.5,21.4,4.4
		c6.8,2.9,12.6,6.8,17.5,11.7c4.9,4.9,8.8,10.7,11.7,17.5c2.9,6.8,4.4,13.9,4.4,21.4c0,7.5-1.5,14.6-4.4,21.3
		c-2.9,6.7-6.8,12.5-11.7,17.4c-4.9,4.9-10.7,8.8-17.5,11.7c-6.8,2.9-13.9,4.4-21.4,4.4c-7.5,0-14.6-1.5-21.3-4.4
		c-6.7-2.9-12.5-6.8-17.3-11.7c-4.9-4.9-8.8-10.7-11.7-17.4c-2.9-6.7-4.4-13.8-4.4-21.3c0-2.4,0.1-4.8,0.4-7.1
		c0.1-1.1-0.3-2.3-1.1-3.1L155,59.8c-1.8-1.8-4.9-1.3-5.9,1.1c0,0,0,0,0,0c-5.2,12-7.8,24.9-7.8,38.6c0,13.5,2.6,26.3,7.8,38.3
		c5.2,12,12.2,22.5,21.1,31.5s19.4,16,31.4,21.1c12,5.2,24.8,7.8,38.4,7.8c13.7,0,26.6-2.6,38.6-7.8c12-5.2,22.5-12.2,31.4-21.1
		s16-19.4,21.2-31.5c5.2-12,7.8-24.8,7.8-38.3C338.9,85.8,336.4,73,331.2,60.9z"/>
	<path class="st1" d="M482.8,0.6h34c2.8,0,5,2.2,5,5V141c0,7.7-0.8,14.4-2.5,20c-1.7,5.6-3.9,10.5-6.5,14.7
		c-2.6,4.1-5.7,7.6-9.2,10.3c-3.5,2.7-7,4.9-10.6,6.6c-8.5,3.9-18,5.8-28.8,5.6h-44.6c-10.7,0.2-20.3-1.7-28.8-5.6
		c-3.6-1.7-7.1-3.9-10.6-6.6c-3.5-2.7-6.5-6.2-9.2-10.3c-2.6-4.1-4.8-9-6.5-14.7c-1.7-5.6-2.5-12.3-2.5-20V66.9c0-2.8,2.2-5,5-5h34
		c2.8,0,5,2.2,5,5V141c0,3.2,0.5,5.7,1.4,7.5c0.9,1.8,2.1,3.1,3.5,3.9c1.4,0.8,2.9,1.4,4.5,1.6c1.6,0.2,3,0.3,4.1,0.3h44.6
		c1.1,0,2.5-0.1,4.1-0.3c1.6-0.2,3.1-0.7,4.5-1.6c1.4-0.8,2.6-2.2,3.5-3.9c0.9-1.8,1.4-4.3,1.4-7.5V5.6C477.8,2.8,480,0.6,482.8,0.6
		z"/>
	<path class="st2" d="M367.2,43.1c-1.9,0-3.5-1.6-3.5-3.5v-34c0-1.9,1.6-3.5,3.5-3.5h34c1.9,0,3.5,1.6,3.5,3.5v34
		c0,1.9-1.6,3.5-3.5,3.5H367.2z"/>
	<path class="st1" d="M401.2,3.6c1.1,0,2,0.9,2,2v34c0,1.1-0.9,2-2,2h-34c-1.1,0-2-0.9-2-2v-34c0-1.1,0.9-2,2-2H401.2 M401.2,0.6
		h-34c-2.8,0-5,2.2-5,5v34c0,2.8,2.2,5,5,5h34c2.8,0,5-2.2,5-5v-34C406.2,2.8,403.9,0.6,401.2,0.6L401.2,0.6z"/>
	<path class="st1" d="M552.2,198.3h34c2.8,0,5-2.2,5-5V65.5c0-2.8-2.2-5-5-5h-34c-2.8,0-5,2.2-5,5v127.8
		C547.2,196,549.4,198.3,552.2,198.3z"/>
	<path class="st3" d="M189.1,74.4c-0.2,0-0.4,0-0.6-0.3l-28.6-28.6c-0.3-0.3-0.4-0.8-0.1-1.1c3.4-5,7.2-9.6,11.5-13.9
		c5.1-5.1,10.9-9.7,17.1-13.6c0.1-0.1,0.3-0.1,0.5-0.1c0.2,0,0.5,0.1,0.7,0.3l28.9,28.9c0.3,0.3,0.3,0.7,0.3,0.8
		c0,0.1-0.1,0.5-0.5,0.7c-6.8,3-12.8,7-17.8,12c-4.1,4.1-7.6,8.9-10.3,14.3C189.8,74.3,189.5,74.4,189.1,74.4L189.1,74.4z"/>
	<path class="st1" d="M188.7,18.5l28,28c-6.7,3-12.5,7-17.5,12c-4,4-7.5,8.8-10.2,14l-27.7-27.7c3.3-4.7,7-9.2,11-13.2
		C177.2,26.7,182.7,22.3,188.7,18.5 M188.8,15.4c-0.4,0-0.9,0.1-1.3,0.4c-6.3,3.9-12.1,8.5-17.3,13.8c-4.3,4.3-8.2,9-11.7,14.1
		c-0.6,1-0.5,2.2,0.3,3l28.6,28.6c0.5,0.5,1.1,0.7,1.7,0.7c0.9,0,1.7-0.5,2.2-1.3c2.7-5.3,6-9.9,10.1-14c4.9-4.9,10.7-8.8,17.3-11.7
		c1.6-0.7,2-2.7,0.7-3.9l-28.9-28.9C190,15.6,189.4,15.4,188.8,15.4L188.8,15.4z"/>
	<g>
		<path class="st1" d="M591.1,23.8c0.2,10.8-9.9,21.1-20.8,21.3c0-7.1,0-14.2,0-21.3C577.3,23.8,584.2,23.8,591.1,23.8z"/>
		<path class="st1" d="M567.9,0c0,7,0,14.1,0,21.3c-6.9,0-13.8,0-20.8,0C547.1,11.2,555.9,0.4,567.9,0z"/>
		<path class="st1" d="M570.4,0c10.7,0.1,20.8,10.4,20.8,21.3c-6.9,0-13.7,0-20.8,0C570.4,14.3,570.4,7.2,570.4,0z M588.2,18.6
			c-1.3-8.6-9.4-15-15.1-15.3c0,5.1,0,10.2,0,15.3C578.2,18.6,583.1,18.6,588.2,18.6z"/>
		<path class="st1" d="M568,23.8c0,7,0,13.8,0,20.6c0,0.3-0.1,0.5-0.1,0.8c-12.2-0.4-20.9-11.4-20.7-21.3
			C554.1,23.8,560.9,23.8,568,23.8z M550.1,26.6c1.3,8.2,8.8,14.8,15.1,15.3c0-5.1,0-10.2,0-15.3C560.2,26.6,555.2,26.6,550.1,26.6z
			"/>
	</g>
	<g>
		<path class="st1" d="M15.6,253.7h47.9V296H47.9v-28.1H15.6V296H0v-70.3h15.6V253.7z M47.9,225.7h15.6V240H47.9V225.7z"/>
		<path class="st1" d="M112.1,267.6H88.2v12.7h30V296H72.6v-70.3h15.6V252h23.9V267.6z M118.2,241.4h-15.6v-15.6h15.6V241.4z"/>
		<path class="st1" d="M174.6,249.3c0.1,2.5-0.2,4.8-0.9,7c-0.5,1.9-1.5,3.9-2.8,6c-1.3,2-3.2,3.7-5.8,5.1l19.4,28.7h-18.9
			l-17.8-26.3h-20.6v-44h27.1c2.7,0,5,0.3,7,0.9s3.7,1.4,5.2,2.3c1.5,0.9,2.7,2,3.7,3.3c1,1.2,1.8,2.5,2.4,3.8
			c1.4,3,2.1,6.4,2.1,10.2V249.3z M142.8,296h-15.6v-15.6h15.6V296z M142.8,241.4v12.7h11.4c1.1,0,2-0.2,2.7-0.5
			c0.6-0.3,1.1-0.8,1.4-1.3c0.3-0.5,0.5-1,0.6-1.6c0.1-0.6,0.1-1.1,0.1-1.5v-3.1c0-0.4,0-0.9-0.1-1.5c-0.1-0.6-0.3-1.1-0.6-1.6
			c-0.3-0.5-0.8-0.9-1.4-1.3c-0.6-0.3-1.5-0.5-2.7-0.5H142.8z"/>
		<path class="st1" d="M193.6,225.7h15.6l25,43.2v-43.2h15.6V296h-18l-22.6-39v11.4h-15.6V225.7z M193.6,280.4h15.6V296h-15.6V280.4
			z"/>
		<path class="st1" d="M297,286.9h-17.5l-3.7,9.1h-16.8l9.9-24.8h22L297,286.9z M304.1,225.7l28.4,70.3h-16.8l-28.4-70.3H304.1z"/>
		<path class="st1" d="M341.5,225.7h15.6l25,43.2v-43.2h15.6V296h-18l-22.6-39v11.4h-15.6V225.7z M341.5,280.4h15.6V296h-15.6V280.4
			z"/>
		<path class="st1" d="M422.4,266.6h-15.6v-40.9h27.1c4.8,0,9.4,0.9,13.6,2.8c4.3,1.8,8,4.3,11.2,7.5c3.2,3.2,5.7,6.9,7.5,11.2
			c1.8,4.3,2.8,8.8,2.8,13.6c0,4.9-0.9,9.5-2.8,13.7c-1.8,4.3-4.3,8-7.5,11.2c-3.2,3.2-6.9,5.7-11.2,7.5c-4.3,1.8-8.8,2.8-13.6,2.8
			v-15.6c2.7,0,5.2-0.5,7.6-1.6c2.4-1,4.4-2.4,6.2-4.2c1.7-1.7,3.1-3.8,4.2-6.2c1-2.4,1.6-4.9,1.6-7.7c0-2.7-0.5-5.2-1.6-7.6
			c-1-2.4-2.4-4.4-4.2-6.2c-1.7-1.7-3.8-3.1-6.2-4.2c-2.4-1-4.9-1.6-7.6-1.6h-11.4V266.6z M422.4,296h-15.6v-15.6h15.6V296z"/>
		<path class="st1" d="M517.4,267.6h-23.9v12.7h30V296h-45.6v-70.3h15.6V252h23.9V267.6z M523.5,241.4h-15.6v-15.6h15.6V241.4z"/>
		<path class="st1" d="M532.5,225.7h58.6l-31.6,54.6h29.7V296h-56.7l31.6-54.6h-31.6V225.7z"/>
	</g>
</g>
</svg>
